<?xml version="1.0" encoding="utf-8"?>
<!-- Generator: Adobe Illustrator 21.0.0, SVG Export Plug-In . SVG Version: 6.00 Build 0)  -->
<svg version="1.1" id="Layer_1" xmlns="http://www.w3.org/2000/svg" xmlns:xlink="http://www.w3.org/1999/xlink" x="0px" y="0px"
	 viewBox="0 0 83.5 18" style="enable-background:new 0 0 83.5 18;" xml:space="preserve">
<style type="text/css">
	.st0{fill:#FFFFFF;}
	.st1{fill:#FF3D5A;}
</style>
<g>
	<path id="path-1" class="st0" d="M1.6,3.5l4.8,8.1c0.3,0.5,0.8,0.8,1.2,0.8c0.5,0,1-0.4,1.3-1l0.5-0.8C9.2,10.4,9,10.2,8.8,9.9
		L5.4,4.1C4.8,3,4.7,2,5.2,1.2c0,0,0,0,0,0H3c-0.8,0-1.3,0.2-1.6,0.6C1.2,2.2,1.2,2.8,1.6,3.5L1.6,3.5z M8.7,15.4
		c0.4,0.6,0.9,1,1.3,1c0.5,0,1-0.4,1.3-1l4.9-8.3c0.2-0.5,0.2-1,0.1-1.3c-0.2-0.4-0.8-0.6-1.6-0.6h-1c0,0.2-0.1,0.5-0.2,0.8L10,12
		c-0.6,1-1.5,1.6-2.4,1.6c0,0,0,0,0,0L8.7,15.4z M10,9.4c0,0,0.1-0.1,0.1-0.1l1.7-2.9l0.6-1.1c0-0.1,0-0.1,0.1-0.1c0,0-0.1,0-0.1,0
		H7.7c-0.1,0-0.1,0-0.1,0c0,0,0,0,0,0l2.4,4.1C10,9.4,10,9.4,10,9.4L10,9.4z M18.6,1.9c-0.2-0.4-0.8-0.6-1.6-0.6H7.8
		c-0.8,0-1.3,0.2-1.6,0.6C6,2.2,6.1,2.8,6.5,3.5l0.4,0.7C7.1,4.1,7.4,4,7.7,4l7.1,0c1.2,0,2.2,0.4,2.6,1.2l1-1.7
		C18.8,2.8,18.8,2.2,18.6,1.9L18.6,1.9z M0.3,1.2C0.8,0.4,1.7,0,3,0h4.9h9.3c1.2,0,2.2,0.4,2.6,1.2C20.2,2,20.1,3,19.5,4.1L12.4,16
		c-0.6,1-1.5,1.6-2.4,1.6c-0.9,0-1.8-0.6-2.4-1.6L0.5,4.1C-0.1,3-0.2,2,0.3,1.2L0.3,1.2z"/>
</g>
<title>Logo</title>
<desc>Created with Sketch.</desc>
<g id="Menu">
	<g id="side-menu" transform="translate(-79.000000, -1285.000000)">
		<g transform="translate(51.000000, 1256.000000)">
			<g id="Group-14">
				<g id="Logo" transform="translate(28.000000, 29.000000)">
					<g id="logo">
						<g id="Page-1" transform="translate(10.000000, 9.000000) scale(-1, 1) translate(-10.000000, -9.000000) ">
							<g id="Mask">
								<path id="path-1_1_" class="st1" d="M18.4,3.5l-4.8,8.1c-0.3,0.5-0.8,0.8-1.2,0.8c-0.5,0-1-0.4-1.3-1l-0.5-0.8
									c0.2-0.1,0.4-0.3,0.6-0.6l3.4-5.9c0.6-1,0.7-2,0.2-2.8c0,0,0,0,0,0H17c0.8,0,1.3,0.2,1.6,0.6C18.8,2.2,18.8,2.8,18.4,3.5
									L18.4,3.5z M11.3,15.4c-0.4,0.6-0.9,1-1.3,1c-0.5,0-1-0.4-1.3-1L3.8,7.1c-0.2-0.5-0.2-1-0.1-1.3c0.2-0.4,0.8-0.6,1.6-0.6h1
									c0,0.2,0.1,0.5,0.2,0.8l3.5,6c0.6,1,1.5,1.6,2.4,1.6c0,0,0,0,0,0L11.3,15.4z M10,9.4c0,0-0.1-0.1-0.1-0.1L8.2,6.4L7.6,5.4
									c0-0.1,0-0.1-0.1-0.1c0,0,0.1,0,0.1,0h4.7c0.1,0,0.1,0,0.1,0c0,0,0,0,0,0l-2.4,4.1C10,9.4,10,9.4,10,9.4L10,9.4z M1.4,1.9
									c0.2-0.4,0.8-0.6,1.6-0.6h9.3c0.8,0,1.3,0.2,1.6,0.6c0.2,0.4,0.2,1-0.2,1.6l-0.4,0.7C12.9,4.1,12.6,4,12.3,4L5.3,4
									C4,4,3.1,4.4,2.6,5.2l-1-1.7C1.2,2.8,1.2,2.2,1.4,1.9L1.4,1.9z M19.7,1.2C19.2,0.4,18.3,0,17,0h-4.9H2.9
									C1.7,0,0.8,0.4,0.3,1.2C-0.2,2-0.1,3,0.5,4.1L7.6,16c0.6,1,1.5,1.6,2.4,1.6c0.9,0,1.8-0.6,2.4-1.6l7.1-11.9
									C20.1,3,20.2,2,19.7,1.2L19.7,1.2z"/>
							</g>
						</g>
					</g>
				</g>
			</g>
		</g>
	</g>
</g>
<g id="logo-long-colour">
	<g id="Group" transform="translate(51.000000, 13.000000)">
		<polygon id="Shape_1_" class="st0" points="-27.4,-9.1 -25,-9.1 -21.7,-0.4 -18.4,-9.1 -16.2,-9.1 -20.6,2.2 -22.9,2.2 		"/>
		<path id="Shape_2_" class="st0" d="M-0.7-9.1h2v1.8h0.1c0.1-0.2,0.2-0.4,0.4-0.5C1.9-8,2.2-8.3,2.6-8.5C2.9-8.6,3.2-8.9,3.7-9
			C4.1-9.2,4.5-9.2,5-9.2c0.8,0,1.5,0.2,2.2,0.5c0.5,0.4,1.1,0.8,1.4,1.5C9-7.8,9.4-8.3,10.2-8.6c0.6-0.4,1.4-0.5,2-0.5
			c0.8,0,1.5,0.2,2.2,0.5c0.5,0.3,1,0.6,1.3,1.2s0.5,1,0.6,1.5c0.2,0.5,0.2,1.2,0.2,1.8v6.5h-2.2V-4c0-0.5,0-0.8-0.1-1.2
			c-0.1-0.5-0.2-0.8-0.4-1.2C13.6-6.6,13.3-6.8,13-7c-0.3-0.2-0.7-0.3-1.3-0.3c-1,0-1.8,0.3-2.2,0.9C9.2-5.8,9-4.9,9-4v6.1H6.8v-5.9
			c0-0.5,0-1-0.1-1.5C6.6-5.7,6.5-6,6.4-6.4C6.2-6.7,5.9-6.9,5.6-7.2C5.4-7.5,4.9-7.5,4.5-7.5c-0.4,0-0.7,0.1-1.1,0.2
			C3-7.1,2.8-6.9,2.5-6.7C2.1-6.3,1.9-5.8,1.8-5.4c-0.2,0.5-0.2,1-0.2,1.6v5.9h-2.2L-0.7-9.1L-0.7-9.1z"/>
		<path id="Shape_3_" class="st0" d="M19.1-9.1h2.2v1.6h0.1c0.5-0.5,1-1.1,1.7-1.4s1.4-0.5,2.2-0.5c0.8,0,1.6,0.2,2.3,0.5
			c0.7,0.3,1.3,0.7,1.8,1.3c0.5,0.5,0.8,1.2,1.2,1.8C30.8-5.2,31-4.4,31-3.7c0,0.8-0.2,1.6-0.5,2.3S29.9,0,29.3,0.5
			c-0.5,0.5-1.1,0.9-1.8,1.2c-0.8,0.5-1.5,0.6-2.4,0.6c-0.7,0-1.5-0.1-2.3-0.5S21.6,1,21.2,0.5h-0.1V5h-2.1V-9.1z M24.8-7.4
			c-0.5,0-1.1,0.1-1.5,0.3c-0.5,0.3-0.9,0.5-1.2,0.8c-0.3,0.4-0.5,0.8-0.7,1.2c-0.1,0.5-0.3,1.1-0.3,1.6s0.1,1.1,0.3,1.5
			c0.2,0.5,0.5,0.9,0.7,1.2c0.3,0.4,0.7,0.7,1.2,0.8c0.5,0.3,1,0.3,1.5,0.3c0.6,0,1.1,0,1.6-0.3c0.5-0.2,0.8-0.5,1.2-0.8
			c0.3-0.4,0.5-0.8,0.7-1.2c0.2-0.5,0.3-1,0.3-1.5s-0.2-1.1-0.4-1.6c-0.2-0.5-0.5-0.9-0.7-1.2c-0.3-0.4-0.7-0.6-1.1-0.8
			C25.9-7.2,25.5-7.4,24.8-7.4z"/>
		<path id="Shape_4_" class="st0" d="M-9.7,2.5c1.6,0,3.2-0.7,4.1-1.9v1.5h1.9V-9.2h-1.9v1.7c-0.9-1.2-2.5-1.9-4.1-1.9
			c-3.2,0-5.6,2.6-5.6,5.9C-15.4-0.2-12.7,2.5-9.7,2.5z M-9.4-7.4c2.1-0.1,3.7,1.8,3.7,4s-1.6,4-3.7,4c-2.3,0-3.7-1.8-3.7-4
			S-11.7-7.4-9.4-7.4z"/>
	</g>
</g>
</svg>
